<svg xmlns="http://www.w3.org/2000/svg" viewBox="0 0 1977.25 1977.24"><defs><style>.cls-1{stroke:#000;stroke-miterlimit:10;stroke-width:0.91px;}</style></defs><title>Ресурс 1</title><g id="Слой_2" data-name="Слой 2"><g id="Слой_1-2" data-name="Слой 1"><path class="cls-1" d="M988.62.45C442.87.45.45,442.86.45,988.61s442.42,988.17,988.17,988.17,988.17-442.42,988.17-988.17S1534.37.45,988.62.45Zm0,1886.5c-496.14,0-898.33-402.2-898.33-898.34S492.48,90.28,988.62,90.28,1887,492.48,1887,988.61,1484.76,1887,988.62,1887Z"/><ellipse class="cls-1" cx="584.37" cy="943.7" rx="90.87" ry="90.88"/><ellipse class="cls-1" cx="1392.87" cy="943.7" rx="90.87" ry="90.88"/><path class="cls-1" d="M1392.87,539.45c-134.1,0-252.95,65.3-326.49,165.83a89.88,89.88,0,0,1-155.52,0C837.32,604.75,718.47,539.45,584.37,539.45c-223.26,0-404.25,181-404.25,404.25S361.11,1348,584.37,1348a406.64,406.64,0,0,0,44.94-2.48c0,.82,0,1.65,0,2.48,0,198.45,160.88,359.33,359.33,359.33S1348,1546.4,1348,1348c0-.83,0-1.66,0-2.48a406.64,406.64,0,0,0,44.94,2.48c223.26,0,404.25-181,404.25-404.25S1616.13,539.45,1392.87,539.45Zm-808.5,628.83c-124,0-224.58-100.55-224.58-224.58S460.34,719.11,584.37,719.11,809,819.66,809,943.7a223.43,223.43,0,0,1-30.2,112.54,0,0,0,0,1,0,0,224.48,224.48,0,0,1-194.37,112ZM1168.29,1348a179.67,179.67,0,1,1-339.44-82.29h0a180.53,180.53,0,0,1,77.47-77.47h0a180.09,180.09,0,0,1,164.58,0h0a180.53,180.53,0,0,1,77.47,77.47h0A179,179,0,0,1,1168.29,1348Zm224.58-179.67A224.51,224.51,0,0,1,1168.29,943.7c0-124,100.55-224.59,224.58-224.59s224.58,100.55,224.58,224.59S1516.9,1168.28,1392.87,1168.28Z"/></g></g></svg>