<svg width="500" height="500" viewBox="0 0 500 500" fill="none" xmlns="http://www.w3.org/2000/svg">
<path d="M250 491C383.653 491 492 383.324 492 250.5C492 117.676 383.653 10 250 10C116.347 10 8 117.676 8 250.5C8 383.324 116.347 491 250 491Z" fill="#FE5906"/>
<path d="M249.036 465.174C367.245 465.174 463.072 368.652 463.072 249.587C463.072 130.522 367.245 34 249.036 34C130.827 34 35 130.522 35 249.587C35 368.652 130.827 465.174 249.036 465.174Z" fill="white"/>
<path d="M249.811 410.889C297.352 410.889 335.891 372.003 335.891 324.034C335.891 276.065 297.352 237.179 249.811 237.179C202.271 237.179 163.731 276.065 163.731 324.034C163.731 372.003 202.271 410.889 249.811 410.889Z" fill="#FE5906"/>
<path d="M155.977 316.279C203.946 316.279 242.832 277.393 242.832 229.424C242.832 181.455 203.946 142.569 155.977 142.569C108.008 142.569 69.1221 181.455 69.1221 229.424C69.1221 277.393 108.008 316.279 155.977 316.279Z" fill="#FE5906"/>
<path d="M342.87 316.279C391.267 316.279 430.501 277.393 430.501 229.424C430.501 181.455 391.267 142.569 342.87 142.569C294.473 142.569 255.239 181.455 255.239 229.424C255.239 277.393 294.473 316.279 342.87 316.279Z" fill="#FE5906"/>
<path d="M214.914 166.609L235.853 240.281H259.117L280.489 169.711C259.551 189.099 230.424 182.119 214.914 166.609Z" fill="#FE5906"/>
<path d="M250.587 372.115C277.141 372.115 298.668 350.588 298.668 324.034C298.668 297.48 277.141 275.954 250.587 275.954C224.033 275.954 202.507 297.48 202.507 324.034C202.507 350.588 224.033 372.115 250.587 372.115Z" fill="white"/>
<path d="M343.646 277.504C370.2 277.504 391.726 255.978 391.726 229.424C391.726 202.87 370.2 181.344 343.646 181.344C317.092 181.344 295.565 202.87 295.565 229.424C295.565 255.978 317.092 277.504 343.646 277.504Z" fill="white"/>
<path d="M341.32 252.689C354.597 252.689 365.36 241.926 365.36 228.649C365.36 215.372 354.597 204.609 341.32 204.609C328.043 204.609 317.279 215.372 317.279 228.649C317.279 241.926 328.043 252.689 341.32 252.689Z" fill="#FE5906"/>
<path d="M154.426 277.504C180.98 277.504 202.507 255.978 202.507 229.424C202.507 202.87 180.98 181.344 154.426 181.344C127.872 181.344 106.346 202.87 106.346 229.424C106.346 255.978 127.872 277.504 154.426 277.504Z" fill="white"/>
<path d="M153.65 252.689C166.927 252.689 177.69 241.926 177.69 228.649C177.69 215.372 166.927 204.609 153.65 204.609C140.373 204.609 129.609 215.372 129.609 228.649C129.609 241.926 140.373 252.689 153.65 252.689Z" fill="#FE5906"/>
</svg>
